<svg width="16" height="16" viewBox="0 0 16 16" fill="none" xmlns="http://www.w3.org/2000/svg">
<path d="M7.99967 1.66663L9.89498 6.06282L14.6663 6.50486L11.0663 9.6639L12.1199 14.3333L7.99967 11.8895L3.87945 14.3333L4.93301 9.6639L1.33301 6.50486L6.10437 6.06282L7.99967 1.66663Z" fill="#0867D6"/>
<path d="M7.99967 1.66663L9.89498 6.06282L14.6663 6.50486L11.0663 9.6639L12.1199 14.3333L7.99967 11.8895L3.87945 14.3333L4.93301 9.6639L1.33301 6.50486L6.10437 6.06282L7.99967 1.66663Z" fill="#EEEE36"/>
<path d="M7.99967 1.66663L9.89498 6.06282L14.6663 6.50486L11.0663 9.6639L12.1199 14.3333L7.99967 11.8895L3.87945 14.3333L4.93301 9.6639L1.33301 6.50486L6.10437 6.06282L7.99967 1.66663Z" fill="#F1DA09"/>
<path d="M7.99967 1.66663L9.89498 6.06282L14.6663 6.50486L11.0663 9.6639L12.1199 14.3333L7.99967 11.8895L3.87945 14.3333L4.93301 9.6639L1.33301 6.50486L6.10437 6.06282L7.99967 1.66663Z" stroke="#0867D6" stroke-width="2" stroke-linejoin="round"/>
<path d="M7.99967 1.66663L9.89498 6.06282L14.6663 6.50486L11.0663 9.6639L12.1199 14.3333L7.99967 11.8895L3.87945 14.3333L4.93301 9.6639L1.33301 6.50486L6.10437 6.06282L7.99967 1.66663Z" stroke="#EEEE36" stroke-width="2" stroke-linejoin="round"/>
<path d="M7.99967 1.66663L9.89498 6.06282L14.6663 6.50486L11.0663 9.6639L12.1199 14.3333L7.99967 11.8895L3.87945 14.3333L4.93301 9.6639L1.33301 6.50486L6.10437 6.06282L7.99967 1.66663Z" stroke="#F1DA09" stroke-width="2" stroke-linejoin="round"/>
</svg>
